<svg width="50" height="50" viewBox="0 0 50 50" fill="none" xmlns="http://www.w3.org/2000/svg">
<rect x="8.33333" y="8.33334" width="14.5833" height="14.5833" rx="1.5" fill="white"/>
<path opacity="0.3" fill-rule="evenodd" clip-rule="evenodd" d="M27.0833 9.83334C27.0833 9.00492 27.7549 8.33334 28.5833 8.33334H40.1667C40.9951 8.33334 41.6667 9.00492 41.6667 9.83334V21.4167C41.6667 22.2451 40.9951 22.9167 40.1667 22.9167H28.5833C27.7549 22.9167 27.0833 22.2451 27.0833 21.4167V9.83334ZM8.33333 28.5833C8.33333 27.7549 9.0049 27.0833 9.83333 27.0833H21.4167C22.2451 27.0833 22.9167 27.7549 22.9167 28.5833V40.1667C22.9167 40.9951 22.2451 41.6667 21.4167 41.6667H9.83333C9.0049 41.6667 8.33333 40.9951 8.33333 40.1667V28.5833ZM28.5833 27.0833C27.7549 27.0833 27.0833 27.7549 27.0833 28.5833V40.1667C27.0833 40.9951 27.7549 41.6667 28.5833 41.6667H40.1667C40.9951 41.6667 41.6667 40.9951 41.6667 40.1667V28.5833C41.6667 27.7549 40.9951 27.0833 40.1667 27.0833H28.5833Z" fill="white"/>
</svg>
