<svg width="50" height="50" viewBox="0 0 50 50" fill="none" xmlns="http://www.w3.org/2000/svg">
<rect width="50" height="50" rx="6" fill="#F5F8FA"/>
<path d="M38.5024 47.6743L37.6294 40.6905C37.4976 39.6364 36.7723 38.7516 35.7645 38.4156L32.3984 37.2936C31.9362 37.1394 31.4291 37.2376 31.0726 37.5413L30.0811 37.2108C29.5179 37.023 29.138 36.496 29.138 35.9023V33.678L32.1088 32.4401C33.6507 31.7978 34.6551 30.2912 34.6551 28.6207V27.931C35.7978 27.931 36.7241 27.0047 36.7241 25.862C36.7241 25.3466 36.5352 24.8756 36.2234 24.5133C36.8088 22.3825 38.4543 15.6421 36.7241 12.7586L37.4138 10C37.4138 10 30.1724 10.1724 26.3793 11.3793L27.7586 10C27.7586 10 18.0603 10 16.0351 13.4477L16.0345 13.4483C16.0345 13.4483 12.5862 13.4196 12.5862 17.5862C12.5862 19.1112 13.4368 22.9191 13.802 24.484C13.475 24.8499 13.2759 25.3326 13.2759 25.862C13.2759 27.0047 14.2022 27.931 15.3448 27.931V28.6207C15.3448 30.2911 16.3492 31.7977 17.8912 32.4403L20.8621 33.6781V35.9024C20.8621 36.4961 20.4822 37.0231 19.919 37.2109L18.9274 37.5414C18.5709 37.2377 18.0639 37.1395 17.6016 37.2936L14.2355 38.4157C13.2277 38.7517 12.5023 39.6365 12.3706 40.6906L11.4977 47.6744C11.3433 48.9092 12.3061 49.9999 13.5506 49.9999H13.57H36.43H36.4494C37.6938 49.9999 38.6568 48.9092 38.5024 47.6743Z" fill="#FFD7A3"/>
<path d="M29.1379 33.6781L20.862 33.6782V35.9024C20.862 36.3988 20.5874 36.8361 20.1709 37.0799C25.9549 38.0922 29.1379 33.6781 29.1379 33.6781Z" fill="#FDC88E"/>
<path d="M13.9656 25.1724C13.9656 25.1724 12.5863 19.5281 12.5863 17.5862C12.5863 13.4196 16.0345 13.4483 16.0345 13.4483L16.0351 13.4477C18.0604 10 27.7586 10 27.7586 10L26.3793 11.3793C30.1724 10.1724 37.4138 10 37.4138 10L36.7241 12.7586C38.7931 16.2069 36.0345 25.1724 36.0345 25.1724H13.9656Z" fill="#734A3E"/>
<path d="M27.7586 10C27.7586 10 18.0604 10 16.0351 13.4477L16.0345 13.4483C16.0345 13.4483 12.5863 13.4196 12.5863 17.5862C12.5863 19.5281 13.9656 25.1724 13.9656 25.1724C13.9656 25.1724 28.3047 18.7644 37.4138 10C37.4138 10 30.1724 10.1724 26.3793 11.3793L27.7586 10Z" fill="#623F33"/>
<path d="M34.6552 23.7931V22.4138C34.6552 20.5094 33.1113 18.9655 31.2069 18.9655H18.7931C16.8887 18.9655 15.3449 20.5094 15.3449 22.4138V23.7931C14.2022 23.7931 13.2759 24.7194 13.2759 25.8621C13.2759 27.0048 14.2022 27.931 15.3449 27.931V28.6207C15.3449 30.2911 16.3493 31.7978 17.8912 32.4403L22.3474 34.2971C23.1879 34.6473 24.0894 34.8276 24.9999 34.8276C25.9105 34.8276 26.8119 34.6472 27.6524 34.2971L32.1088 32.4403C33.6508 31.7978 34.6552 30.2912 34.6552 28.6207V27.931C35.7978 27.931 36.7241 27.0048 36.7241 25.8621C36.7241 24.7194 35.7978 23.7931 34.6552 23.7931Z" fill="#FFE1B2"/>
<path d="M20.1724 26.5517C19.7931 26.5517 19.4828 26.2413 19.4828 25.862V25.1723C19.4828 24.793 19.7931 24.4827 20.1724 24.4827C20.5518 24.4827 20.8621 24.793 20.8621 25.1723V25.862C20.8621 26.2413 20.5518 26.5517 20.1724 26.5517Z" fill="#623F33"/>
<path d="M29.8275 26.5517C29.4482 26.5517 29.1379 26.2413 29.1379 25.862V25.1723C29.1379 24.793 29.4482 24.4827 29.8275 24.4827C30.2069 24.4827 30.5172 24.793 30.5172 25.1723V25.862C30.5172 26.2413 30.2069 26.5517 29.8275 26.5517Z" fill="#623F33"/>
<path d="M25 31.3982C23.7739 31.3982 22.627 31.0965 21.8535 30.5702C21.5387 30.3561 21.4568 29.927 21.6713 29.6122C21.8851 29.2977 22.3145 29.2158 22.6294 29.4301C23.1715 29.7988 24.0578 30.019 25 30.019C25.9423 30.019 26.8286 29.7988 27.3707 29.4301C27.6862 29.2152 28.1146 29.2974 28.3287 29.6122C28.5432 29.927 28.4614 30.3561 28.1466 30.5702C27.3731 31.0965 26.2262 31.3982 25 31.3982Z" fill="#E4B07B"/>
<path d="M38.5024 47.6743L37.6295 40.6905C37.4977 39.6364 36.7723 38.7516 35.7645 38.4156L32.3984 37.2936C31.8122 37.0981 31.1528 37.3068 30.8216 37.8286C29.599 39.7548 27.4503 41.0343 25 41.0343C22.5497 41.0343 20.401 39.7547 19.1785 37.8286C18.8473 37.3068 18.1879 37.0981 17.6017 37.2936L14.2355 38.4156C13.2277 38.7516 12.5024 39.6364 12.3706 40.6905L11.4977 47.6743C11.3433 48.9091 12.3062 49.9999 13.5507 49.9999H36.4495C37.6939 49.9999 38.6568 48.9091 38.5024 47.6743Z" fill="#00BEA4"/>
<path d="M12.9455 39.3248C12.6393 39.7125 12.4343 40.1808 12.3706 40.6906L11.4977 47.6744C11.3433 48.9093 12.3062 50 13.5507 50H17.4138V45.5114C17.4138 44.8479 17.1747 44.2067 16.7403 43.7051L12.9455 39.3248Z" fill="#00AB9A"/>
<path d="M37.0545 39.3248C37.3607 39.7125 37.5657 40.1808 37.6294 40.6906L38.5023 47.6744C38.6567 48.9093 37.6938 50 36.4493 50H32.5862V45.5114C32.5862 44.8479 32.8253 44.2067 33.2597 43.7051L37.0545 39.3248Z" fill="#00AB9A"/>
<path d="M18.9652 31.0106C18.4064 30.4115 18.1036 29.6209 18.1036 28.8016V20.9861C20.2987 20.8215 27.2194 20.223 31.207 18.9655H18.7931C18.5557 18.9655 18.3258 18.9932 18.1035 19.0415V19.035C16.5296 19.3546 15.3449 20.7456 15.3449 22.4138V23.7931C14.2022 23.7931 13.2759 24.7194 13.2759 25.8621C13.2759 27.0048 14.2022 27.931 15.3449 27.931V28.6207C15.3449 30.2912 16.3493 31.7978 17.8912 32.4403L22.3473 34.2971C22.5654 34.3879 22.788 34.4662 23.0134 34.534C21.0441 33.0934 19.7332 31.834 18.9652 31.0106Z" fill="#FFD7A3"/>
</svg>
