<svg width="24" height="24" viewBox="0 0 24 24" fill="none" xmlns="http://www.w3.org/2000/svg">
<path fill-rule="evenodd" clip-rule="evenodd" d="M4 9.67468L10.8803 13.647C10.9543 13.6898 11.032 13.7207 11.1111 13.7403V21.4444L4.4907 17.5264C4.18655 17.3464 4 17.0193 4 16.6658V9.67468ZM20 9.56909V16.6659C20 17.0193 19.8135 17.3465 19.5093 17.5264L12.8889 21.4444V13.6728C12.905 13.6647 12.921 13.6562 12.9368 13.647L20 9.56909Z" fill="#616277"/>
<path opacity="0.3" fill-rule="evenodd" clip-rule="evenodd" d="M4.21613 7.74671C4.30017 7.64058 4.40624 7.55089 4.52991 7.48502L11.5299 3.75667C11.8238 3.60015 12.1762 3.60015 12.4701 3.75667L19.4701 7.48502C19.5654 7.5358 19.6503 7.60073 19.7227 7.67643L12.0479 12.1075C11.9975 12.1366 11.951 12.1699 11.9086 12.2068C11.8661 12.1699 11.8196 12.1366 11.7692 12.1075L4.21613 7.74671Z" fill="#616277"/>
</svg>
