<svg width="29" height="29" viewBox="0 0 29 29" fill="none" xmlns="http://www.w3.org/2000/svg">
<path d="M16.1859 29H12.8142C7.39002 29 2.9772 24.5871 2.9772 19.163V3.26907C2.97715 1.46648 4.44363 0 6.24622 0C8.0488 0 9.51529 1.46648 9.51529 3.26907V19.163C9.51529 20.982 10.9952 22.4619 12.8142 22.4619H16.1859C18.0049 22.4619 19.4848 20.9821 19.4848 19.163C19.4848 17.344 18.0049 15.8641 16.1859 15.8641H14.5948C12.7922 15.8641 11.3257 14.3977 11.3257 12.5951C11.3257 10.7925 12.7921 9.32599 14.5948 9.32599H16.1859C21.61 9.32599 26.0229 13.7389 26.0229 19.1629C26.0229 24.5871 21.61 29 16.1859 29Z" fill="#FF3C3C"/>
<path d="M16.1857 9.32597H15.3677V15.8641H16.1857C18.0047 15.8641 19.4845 17.3439 19.4845 19.1629C19.4845 20.9819 18.0047 22.4618 16.1857 22.4618H15.3677V28.9999H16.1857C21.6098 28.9999 26.0226 24.5871 26.0226 19.1629C26.0226 13.7388 21.6098 9.32597 16.1857 9.32597Z" fill="#DA0806"/>
</svg>
