<svg width="40" height="40" viewBox="0 0 40 40" fill="none" xmlns="http://www.w3.org/2000/svg">
<rect width="40" height="40" rx="6" fill="#EEE5FF"/>
<path fill-rule="evenodd" clip-rule="evenodd" d="M14.3333 12.5C13.781 12.5 13.3333 12.9477 13.3333 13.5V26.5C13.3333 27.0523 13.781 27.5 14.3333 27.5H14.8333C15.3856 27.5 15.8333 27.0523 15.8333 26.5V13.5C15.8333 12.9477 15.3856 12.5 14.8333 12.5H14.3333ZM18.5 12.5C17.9477 12.5 17.5 12.9477 17.5 13.5V26.5C17.5 27.0523 17.9477 27.5 18.5 27.5H19C19.5523 27.5 20 27.0523 20 26.5V13.5C20 12.9477 19.5523 12.5 19 12.5H18.5Z" fill="#8950FC"/>
<rect opacity="0.3" x="21.231" y="13.2702" width="2.5" height="15" rx="1" transform="rotate(-19 21.231 13.2702)" fill="#8950FC"/>
</svg>
