<svg width="32" height="32" viewBox="0 0 32 32" fill="none" xmlns="http://www.w3.org/2000/svg">
<rect width="32" height="32" rx="6" fill="#F5F8FA"/>
<path d="M22.1381 10.9864C22.7156 11.5638 22.725 12.497 22.1594 13.086L16.7425 18.7271C16.4673 19.0138 16.0894 19.1795 15.6921 19.1878L13.4167 19.2355L13.4648 16.945C13.4729 16.5566 13.6314 16.1866 13.9069 15.9127L19.4439 10.4074C20.0302 9.82443 20.9776 9.82579 21.5622 10.4104L22.1381 10.9864Z" fill="#A1A5B7"/>
<path opacity="0.3" d="M16.6 9.3333C16.9682 9.3333 17.2667 9.63177 17.2667 9.99996C17.2667 10.3682 16.9682 10.6666 16.6 10.6666H12C11.2637 10.6666 10.6667 11.2636 10.6667 12V20C10.6667 20.7363 11.2637 21.3333 12 21.3333H20C20.7364 21.3333 21.3334 20.7363 21.3334 20V16.6666C21.3334 16.2984 21.6319 16 22 16C22.3682 16 22.6667 16.2984 22.6667 16.6666V20C22.6667 21.4727 21.4728 22.6666 20 22.6666H12C10.5273 22.6666 9.33337 21.4727 9.33337 20V12C9.33337 10.5272 10.5273 9.3333 12 9.3333H16.6Z" fill="#A1A5B7"/>
</svg>
