<svg width="32" height="32" viewBox="0 0 32 32" fill="none" xmlns="http://www.w3.org/2000/svg">
<rect width="32" height="32" rx="6" fill="#F5F8FA"/>
<path fill-rule="evenodd" clip-rule="evenodd" d="M12.25 9.25C10.5931 9.25 9.25 10.5931 9.25 12.25C9.25 13.9069 10.5931 15.25 12.25 15.25H19.75C21.4069 15.25 22.75 13.9069 22.75 12.25C22.75 10.5931 21.4069 9.25 19.75 9.25H12.25ZM13.75 12.25C13.75 13.0784 13.0784 13.75 12.25 13.75C11.4216 13.75 10.75 13.0784 10.75 12.25C10.75 11.4216 11.4216 10.75 12.25 10.75C13.0784 10.75 13.75 11.4216 13.75 12.25Z" fill="#A1A5B7"/>
<path opacity="0.3" fill-rule="evenodd" clip-rule="evenodd" d="M12.25 16.75C10.5931 16.75 9.25 18.0931 9.25 19.75C9.25 21.4069 10.5931 22.75 12.25 22.75H19.75C21.4069 22.75 22.75 21.4069 22.75 19.75C22.75 18.0931 21.4069 16.75 19.75 16.75H12.25ZM21.25 19.75C21.25 20.5784 20.5784 21.25 19.75 21.25C18.9216 21.25 18.25 20.5784 18.25 19.75C18.25 18.9216 18.9216 18.25 19.75 18.25C20.5784 18.25 21.25 18.9216 21.25 19.75Z" fill="#A1A5B7"/>
</svg>
