<svg width="24" height="24" viewBox="0 0 24 24" fill="none" xmlns="http://www.w3.org/2000/svg">
<path opacity="0.3" fill-rule="evenodd" clip-rule="evenodd" d="M2 19.5C2 20.3284 2.67157 21 3.5 21H20.5C21.3284 21 22 20.3284 22 19.5V8.5C22 7.67157 21.3284 7 20.5 7H10L7.43934 4.43934C7.15804 4.15804 6.7765 4 6.37868 4H3.5C2.67157 4 2 4.67157 2 5.5V19.5Z" fill="#616277"/>
<path opacity="0.3" fill-rule="evenodd" clip-rule="evenodd" d="M4 19L10 11L16 19H4Z" fill="#616277"/>
<path fill-rule="evenodd" clip-rule="evenodd" d="M11 19L15 14L19 19H11Z" fill="#616277"/>
<path opacity="0.3" fill-rule="evenodd" clip-rule="evenodd" d="M18 12C18.8284 12 19.5 11.3284 19.5 10.5C19.5 9.67157 18.8284 9 18 9C17.1716 9 16.5 9.67157 16.5 10.5C16.5 11.3284 17.1716 12 18 12Z" fill="#616277"/>
</svg>
