<svg width="20" height="20" viewBox="0 0 20 20" fill="none" xmlns="http://www.w3.org/2000/svg">
<path opacity="0.3" d="M18.4167 9.58332V10.5C18.4167 11 18.0833 11.3333 17.6667 11.4166L16.5833 11.5833C16.4167 12.25 16.1667 12.9166 15.75 13.4999L16.4167 14.4166C16.6667 14.7499 16.6667 15.3333 16.3333 15.6666L15.6667 16.3333C15.3333 16.6666 14.8333 16.6666 14.4167 16.4166L13.5 15.75C12.9167 16.0833 12.25 16.4167 11.5833 16.5833L11.4167 17.6666C11.3333 18.0833 10.9167 18.4166 10.5 18.4166H9.58332C9.08332 18.4166 8.74999 18.0833 8.66665 17.6666L8.49999 16.5833C7.83332 16.4167 7.16665 16.1667 6.58332 15.75L5.66666 16.4166C5.33332 16.6666 4.74999 16.6666 4.41666 16.3333L3.74999 15.6666C3.41666 15.3333 3.41665 14.8333 3.66665 14.4166L4.33332 13.4999C3.99999 12.9166 3.66665 12.25 3.49999 11.5833L2.41665 11.4166C1.99999 11.3333 1.66666 10.9166 1.66666 10.5V9.58332C1.66666 9.08332 1.99999 8.75001 2.41665 8.66668L3.49999 8.49995C3.66665 7.83328 3.91665 7.16668 4.33332 6.58334L3.66665 5.6666C3.41665 5.33326 3.41666 4.74993 3.74999 4.4166L4.41666 3.74999C4.74999 3.41666 5.24999 3.41668 5.66666 3.66668L6.58332 4.33328C7.16665 3.99995 7.83332 3.66662 8.49999 3.49995L8.66665 2.41668C8.74999 2.00001 9.16666 1.66666 9.58332 1.66666H10.5C11 1.66666 11.3333 2.00001 11.4167 2.41668L11.5833 3.49995C12.25 3.66662 12.9167 3.91662 13.5 4.33328L14.4167 3.66668C14.75 3.41668 15.3333 3.41666 15.6667 3.74999L16.3333 4.4166C16.6667 4.74993 16.6667 5.24993 16.4167 5.6666L15.75 6.58334C16.0833 7.16668 16.4167 7.83328 16.5833 8.49995L17.6667 8.66668C18.0833 8.75001 18.4167 9.16666 18.4167 9.58332ZM10.0833 7.16664C8.49999 7.16664 7.16666 8.49997 7.16666 10.0833C7.16666 11.6666 8.49999 13 10.0833 13C11.6667 13 13 11.6666 13 10.0833C13 8.49997 11.6667 7.16664 10.0833 7.16664Z" fill="#A1A5B7"/>
<path d="M14.25 10.0833C14.25 12.4166 12.4167 14.25 10.0833 14.25C7.74999 14.25 5.91666 12.4166 5.91666 10.0833C5.91666 7.74996 7.74999 5.91663 10.0833 5.91663C12.4167 5.91663 14.25 7.74996 14.25 10.0833ZM10.0833 8.41663C9.16666 8.41663 8.41666 9.16663 8.41666 10.0833C8.41666 11 9.16666 11.75 10.0833 11.75C11 11.75 11.75 11 11.75 10.0833C11.75 9.16663 11 8.41663 10.0833 8.41663Z" fill="#A1A5B7"/>
</svg>
