<svg width="24" height="24" viewBox="0 0 24 24" fill="none" xmlns="http://www.w3.org/2000/svg">
<path fill-rule="evenodd" clip-rule="evenodd" d="M3.94578 8.10558C3.39764 8.17313 3.00805 8.67225 3.07561 9.22038C3.58691 13.3692 6.89849 16.5925 11 17.0482V18H10C8.89546 18 8.00003 18.8954 8.00003 20H12H16C16 18.8954 15.1046 18 14 18H13V17.0484C17.1472 16.5886 20.4825 13.3001 20.9408 9.09438C21.0006 8.54534 20.604 8.05176 20.055 7.99193C19.506 7.9321 19.0124 8.32868 18.9525 8.87772C18.5682 12.4043 15.5777 15.1035 12.0009 15.1035C8.46055 15.1035 5.48972 12.4578 5.06059 8.97575C4.99303 8.42761 4.49392 8.03802 3.94578 8.10558Z" fill="#616277"/>
<path opacity="0.3" fill-rule="evenodd" clip-rule="evenodd" d="M18 8C18 11.3137 15.3137 14 12 14C8.68629 14 6 11.3137 6 8C6 4.68629 8.68629 2 12 2C15.3137 2 18 4.68629 18 8ZM8.11556 7.1919C8.47711 7.16662 8.79071 7.43922 8.81599 7.80078C8.90331 9.0495 9.45602 9.98539 10.5074 10.6648C10.8118 10.8615 10.8991 11.2677 10.7024 11.5721C10.5057 11.8765 10.0995 11.9638 9.79505 11.7671C8.3967 10.8636 7.62282 9.55317 7.50668 7.89233C7.4814 7.53078 7.754 7.21719 8.11556 7.1919Z" fill="#616277"/>
</svg>
