<svg width="16" height="16" viewBox="0 0 16 16" fill="none" xmlns="http://www.w3.org/2000/svg">
<path fill-rule="evenodd" clip-rule="evenodd" d="M14 2H11C11 2 10 1.82843 10 1C10 0.171573 11 0 11 0H16V5C16 5 16 6 15 6C14 6 14 5 14 5V2ZM5 14H2V11C2 11 2 10 1 10C0 10 0 11 0 11V16H5C5 16 6 15.8284 6 15C6 14.1716 5 14 5 14ZM14 11V14H11C11 14 10 14 10 15C10 16 11 16 11 16H16V11C16 11 15.8284 10 15 10C14.1716 10 14 11 14 11ZM2 5V2H5C5 2 6 2 6 1C6 0 5 0 5 0H0V5C0 5 0.171573 6 1 6C1.82843 6 2 5 2 5Z" fill="#616277"/>
</svg>
