<svg width="40" height="40" viewBox="0 0 40 40" fill="none" xmlns="http://www.w3.org/2000/svg">
<rect width="40" height="40" rx="6" fill="#FFE2E5"/>
<path opacity="0.3" fill-rule="evenodd" clip-rule="evenodd" d="M18.2322 20.5893L16.4645 22.357C16.139 22.6825 16.139 23.2101 16.4645 23.5355C16.7899 23.861 17.3175 23.861 17.643 23.5355L19.4108 21.7678L20 22.357C20.6509 23.0079 20.6509 24.0632 20 24.714L17.643 27.0711C16.9921 27.7219 15.9368 27.7219 15.286 27.0711L12.9289 24.714C12.2781 24.0632 12.2781 23.0079 12.9289 22.357L15.286 20C15.9368 19.3491 16.9921 19.3491 17.643 20L18.2322 20.5893Z" fill="#F64E60"/>
<path fill-rule="evenodd" clip-rule="evenodd" d="M21.7678 19.4107L23.5355 17.643C23.861 17.3175 23.861 16.7899 23.5355 16.4645C23.2101 16.139 22.6825 16.139 22.357 16.4645L20.5893 18.2322L20 17.643C19.3491 16.9921 19.3491 15.9368 20 15.286L22.357 12.9289C23.0079 12.2781 24.0632 12.2781 24.714 12.9289L27.0711 15.286C27.7219 15.9368 27.7219 16.9921 27.0711 17.643L24.714 20C24.0632 20.6509 23.0079 20.6509 22.357 20L21.7678 19.4107Z" fill="#F64E60"/>
<path opacity="0.3" fill-rule="evenodd" clip-rule="evenodd" d="M13.5182 14.6967C13.1927 14.3713 13.1927 13.8436 13.5182 13.5182C13.8436 13.1928 14.3713 13.1928 14.6967 13.5182L15.8752 14.6967C16.2006 15.0221 16.2006 15.5498 15.8752 15.8752C15.5498 16.2007 15.0221 16.2007 14.6967 15.8752L13.5182 14.6967ZM16.9526 12.0956C16.9526 11.6354 17.3257 11.2623 17.786 11.2623C18.2462 11.2623 18.6193 11.6354 18.6193 12.0956L18.6193 13.7623C18.6193 14.2225 18.2462 14.5956 17.786 14.5956C17.3257 14.5956 16.9526 14.2225 16.9526 13.7623V12.0956ZM11.4052 17.643C11.4052 17.1827 11.7783 16.8096 12.2386 16.8096L13.9052 16.8096C14.3655 16.8096 14.7386 17.1827 14.7386 17.643C14.7386 18.1032 14.3655 18.4763 13.9052 18.4763L12.2386 18.4763C11.7783 18.4763 11.4052 18.1032 11.4052 17.643Z" fill="#F64E60"/>
<path opacity="0.3" fill-rule="evenodd" clip-rule="evenodd" d="M25.2022 26.3807C25.5276 26.7061 26.0553 26.7062 26.3807 26.3807C26.7062 26.0553 26.7062 25.5276 26.3807 25.2022L25.2022 24.0237C24.8768 23.6983 24.3491 23.6983 24.0237 24.0237C23.6983 24.3491 23.6983 24.8768 24.0237 25.2022L25.2022 26.3807ZM27.8033 22.9463C28.2635 22.9463 28.6366 22.5732 28.6366 22.1129C28.6366 21.6527 28.2635 21.2796 27.8033 21.2796L26.1366 21.2796C25.6764 21.2796 25.3033 21.6527 25.3033 22.1129C25.3033 22.5732 25.6764 22.9463 26.1366 22.9463L27.8033 22.9463ZM22.2559 28.4937C22.7162 28.4937 23.0893 28.1206 23.0893 27.6603V25.9937C23.0893 25.5334 22.7162 25.1603 22.2559 25.1603C21.7957 25.1603 21.4226 25.5334 21.4226 25.9937L21.4226 27.6603C21.4226 28.1206 21.7957 28.4937 22.2559 28.4937Z" fill="#F64E60"/>
</svg>
