<svg width="40" height="40" viewBox="0 0 40 40" fill="none" xmlns="http://www.w3.org/2000/svg">
<rect width="40" height="40" rx="6" fill="#E1E9FF"/>
<path opacity="0.3" fill-rule="evenodd" clip-rule="evenodd" d="M12.6667 12.6667L19.6314 11.3608C19.875 11.3151 20.125 11.3151 20.3686 11.3608L27.3333 12.6667V19.4033C27.3333 23.196 25.3795 26.7211 22.1633 28.7313L20.53 29.7521C20.2057 29.9548 19.7943 29.9548 19.47 29.7521L17.8367 28.7313C14.6205 26.7211 12.6667 23.196 12.6667 19.4033L12.6667 12.6667Z" fill="#6993FF"/>
<path fill-rule="evenodd" clip-rule="evenodd" d="M19.2438 22.5208C19.0241 22.5208 18.8045 22.433 18.6288 22.2573L16.8719 20.5003C16.5205 20.149 16.5205 19.6219 16.8719 19.2705C17.2233 18.9191 17.7943 18.9191 18.1017 19.2705L19.2438 20.4125L22.1427 17.5135C22.4941 17.1622 23.0212 17.1622 23.3726 17.5135C23.724 17.8649 23.724 18.392 23.3726 18.7434L19.8587 22.2573C19.683 22.433 19.4634 22.5208 19.2438 22.5208Z" fill="#6993FF"/>
</svg>
