<svg width="26" height="24" viewBox="0 0 26 24" fill="none" xmlns="http://www.w3.org/2000/svg">
<path opacity="0.3" fill-rule="evenodd" clip-rule="evenodd" d="M10.8787 12.7071L8.75741 14.8285C8.36688 15.219 8.36688 15.8522 8.75741 16.2427C9.14793 16.6332 9.78109 16.6332 10.1716 16.2427L12.2929 14.1214L13 14.8285C13.7811 15.6095 13.7811 16.8758 13 17.6569L10.1716 20.4853C9.39057 21.2664 8.12424 21.2664 7.34319 20.4853L4.51477 17.6569C3.73372 16.8758 3.73372 15.6095 4.51477 14.8285L7.34319 12C8.12424 11.219 9.39057 11.219 10.1716 12L10.8787 12.7071Z" fill="#616277"/>
<path fill-rule="evenodd" clip-rule="evenodd" d="M15.1213 11.2929L17.2426 9.17154C17.6331 8.78101 17.6331 8.14785 17.2426 7.75732C16.8521 7.3668 16.2189 7.3668 15.8284 7.75732L13.7071 9.87865L13 9.17154C12.2189 8.39049 12.2189 7.12416 13 6.34311L15.8284 3.51468C16.6094 2.73363 17.8758 2.73363 18.6568 3.51468L21.4852 6.34311C22.2663 7.12416 22.2663 8.39049 21.4852 9.17154L18.6568 12C17.8758 12.781 16.6094 12.781 15.8284 12L15.1213 11.2929Z" fill="#616277"/>
<path opacity="0.3" fill-rule="evenodd" clip-rule="evenodd" d="M5.20457 5.6188C4.82357 5.2378 4.82357 4.62008 5.20457 4.23908L5.23907 4.20457C5.62007 3.82357 6.23778 3.82357 6.61878 4.20457L8.0675 5.6533C8.44849 6.0343 8.44849 6.65202 8.0675 7.03302L8.03299 7.06753C7.652 7.44853 7.03428 7.44853 6.65328 7.06753L5.20457 5.6188ZM9.34311 2.3147C9.34311 1.87288 9.79083 1.51471 10.3431 1.51471C10.8954 1.51471 11.3431 1.87288 11.3431 2.3147L11.3431 4.71472C11.3431 5.15654 10.8954 5.51471 10.3431 5.51471C9.79083 5.51471 9.34311 5.15654 9.34311 4.71472L9.34311 2.3147ZM2.68631 9.05502C2.68631 8.5671 3.18073 8.17157 3.79063 8.17157L5.58199 8.17157C6.19189 8.17157 6.68631 8.5671 6.68631 9.05502V9.28812C6.68631 9.77604 6.19189 10.1716 5.58199 10.1716L3.79063 10.1716C3.18073 10.1716 2.68631 9.77604 2.68631 9.28812L2.68631 9.05502Z" fill="#616277"/>
<path opacity="0.3" fill-rule="evenodd" clip-rule="evenodd" d="M19.2597 19.6741C19.6407 20.0551 20.2585 20.0551 20.6395 19.6741L20.6739 19.6396C21.0549 19.2586 21.0549 18.6409 20.6739 18.2599L19.2252 16.8112C18.8442 16.4302 18.2265 16.4302 17.8455 16.8112L17.811 16.8457C17.43 17.2267 17.43 17.8444 17.811 18.2254L19.2597 19.6741ZM22.2596 15.5356C22.8695 15.5356 23.3639 15.14 23.3639 14.6521L23.3639 14.419C23.3639 13.9311 22.8695 13.5356 22.2596 13.5356H20.4683C19.8584 13.5356 19.3639 13.9311 19.3639 14.419L19.3639 14.6521C19.3639 15.14 19.8584 15.5356 20.4683 15.5356L22.2596 15.5356ZM15.7071 22.1924C16.2594 22.1924 16.7071 21.8342 16.7071 21.3924L16.7071 18.9924C16.7071 18.5505 16.2594 18.1924 15.7071 18.1924C15.1548 18.1924 14.7071 18.5505 14.7071 18.9924L14.7071 21.3924C14.7071 21.8342 15.1548 22.1924 15.7071 22.1924Z" fill="#616277"/>
</svg>
