<svg width="40" height="40" viewBox="0 0 40 40" fill="none" xmlns="http://www.w3.org/2000/svg">
<rect width="40" height="40" rx="6" fill="#E8FFF3"/>
<path fill-rule="evenodd" clip-rule="evenodd" d="M28.3296 24.9755C28.6452 25.2911 29.1847 25.0664 29.1831 24.6201L29.1699 20.9211V14.6053C29.1699 13.4426 28.2274 12.5 27.0647 12.5H17.2401C16.0774 12.5 15.1349 13.4426 15.1349 14.6053V17.5H20.3333C21.9902 17.5 23.3333 18.8431 23.3333 20.5V23.0263H26.3804L28.3296 24.9755Z" fill="#50CD89"/>
<path opacity="0.3" fill-rule="evenodd" clip-rule="evenodd" d="M11.6542 25V20.8333C11.6542 19.9129 12.4004 19.1667 13.3209 19.1667H19.9876C20.908 19.1667 21.6542 19.9129 21.6542 20.8333V25C21.6542 25.9205 20.908 26.6667 19.9876 26.6667H13.4173L12.5217 27.5239C12.2037 27.8282 11.676 27.6028 11.676 27.1627V25.2702C11.6617 25.1823 11.6542 25.092 11.6542 25ZM15 22.0833C15 21.8532 15.1866 21.6667 15.4167 21.6667H19.5833C19.8135 21.6667 20 21.8532 20 22.0833C20 22.3135 19.8135 22.5 19.5833 22.5H15.4167C15.1866 22.5 15 22.3135 15 22.0833ZM17.9167 23.3333C17.6866 23.3333 17.5 23.5199 17.5 23.75C17.5 23.9801 17.6866 24.1667 17.9167 24.1667H19.5833C19.8135 24.1667 20 23.9801 20 23.75C20 23.5199 19.8135 23.3333 19.5833 23.3333H17.9167Z" fill="#50CD89"/>
</svg>
