<svg width="40" height="40" viewBox="0 0 40 40" fill="none" xmlns="http://www.w3.org/2000/svg">
<rect width="40" height="40" rx="6" fill="#FFF4DE"/>
<path fill-rule="evenodd" clip-rule="evenodd" d="M20 23.3333C17.6988 23.3333 15.8333 21.4679 15.8333 19.1667H14.1667C14.1667 22.1061 16.3408 24.5377 19.1687 24.9412C19.1674 24.9606 19.1667 24.9802 19.1667 25V27.5C19.1667 27.9602 19.5398 28.3333 20 28.3333C20.4602 28.3333 20.8333 27.9602 20.8333 27.5V25C20.8333 24.9802 20.8327 24.9606 20.8313 24.9412C23.6592 24.5377 25.8333 22.1061 25.8333 19.1667H24.1667C24.1667 21.4679 22.3012 23.3333 20 23.3333Z" fill="#FFA800"/>
<rect opacity="0.3" x="17.5" y="11.6667" width="5" height="10" rx="2.5" fill="#FFA800"/>
</svg>
