<svg width="28" height="28" viewBox="0 0 28 28" fill="none" xmlns="http://www.w3.org/2000/svg">
<path d="M9.32275 28C5.81302 28 2.95767 25.1447 2.95767 21.6349V10.7345C2.95767 4.81545 7.77307 0 13.6921 0H14.3078C20.2269 0 25.0424 4.81545 25.0424 10.7345C25.0424 16.1662 20.993 20.7001 15.6878 21.3807V21.6349C15.6878 25.1447 12.8325 28 9.32275 28Z" fill="#FF3C3C"/>
<path d="M14.3078 0H14V25.9471C15.0471 24.8123 15.6878 23.2971 15.6878 21.6349V21.3807C20.993 20.7001 25.0424 16.1662 25.0424 10.7345C25.0423 4.81545 20.2269 0 14.3078 0Z" fill="#DA0806"/>
<path d="M14.3078 3.27292H13.6921C9.57787 3.27292 6.23056 6.62029 6.23056 10.7345V21.6347C6.23056 23.34 7.61754 24.7269 9.32281 24.7269C11.0275 24.7269 12.4145 23.34 12.4145 21.6347V18.1961H14.3078C18.422 18.1961 21.7694 14.8487 21.7694 10.7345C21.7694 6.62034 18.4221 3.27292 14.3078 3.27292ZM14.3078 13.6608H11.5899C11.1348 13.6608 10.7653 13.2919 10.7653 12.8361V10.7345C10.7653 9.12044 12.0781 7.80766 13.6921 7.80766H14.3078C15.9219 7.80766 17.2347 9.12044 17.2347 10.7345C17.2347 12.348 15.9219 13.6608 14.3078 13.6608Z" fill="white"/>
<path d="M14.3078 3.27292H14V7.80772H14.3078C15.9219 7.80772 17.2347 9.12049 17.2347 10.7345C17.2347 12.348 15.9219 13.6608 14.3078 13.6608H14V18.1962H14.3078C18.4221 18.1962 21.7694 14.8488 21.7694 10.7346C21.7694 6.6204 18.4221 3.27292 14.3078 3.27292Z" fill="#DCE1EB"/>
</svg>
