<svg width="28" height="28" viewBox="0 0 28 28" fill="none" xmlns="http://www.w3.org/2000/svg">
<path opacity="0.25" d="M3.5 4.66669C3.5 2.73369 5.067 1.16669 7 1.16669H18.3836C19.3118 1.16669 20.2021 1.53544 20.8585 2.19181L23.4749 4.80823C24.1313 5.46461 24.5 6.35484 24.5 7.2831V23.3334C24.5 25.2663 22.933 26.8334 21 26.8334H7C5.067 26.8334 3.5 25.2663 3.5 23.3334V4.66669Z" fill="#A1A5B7"/>
<path d="M17.5 2.20713C17.5 1.63251 17.9658 1.16669 18.5404 1.16669C19.3683 1.16669 20.1622 1.49554 20.7475 2.0809L23.5858 4.91914C24.1711 5.5045 24.5 6.29842 24.5 7.12625C24.5 7.70087 24.0342 8.16669 23.4596 8.16669H18.6667C18.0223 8.16669 17.5 7.64435 17.5 7.00002V2.20713Z" fill="#A1A5B7"/>
<path d="M15.1666 12.8334C15.1666 12.189 14.6443 11.6667 14 11.6667C13.3556 11.6667 12.8333 12.189 12.8333 12.8334V15.1667H10.5C9.85565 15.1667 9.33331 15.689 9.33331 16.3334C9.33331 16.9777 9.85565 17.5 10.5 17.5H12.8333V19.8334C12.8333 20.4777 13.3556 21 14 21C14.6443 21 15.1666 20.4777 15.1666 19.8334V17.5H17.5C18.1443 17.5 18.6666 16.9777 18.6666 16.3334C18.6666 15.689 18.1443 15.1667 17.5 15.1667H15.1666V12.8334Z" fill="#A1A5B7"/>
</svg>
