<svg width="19" height="19" viewBox="0 0 19 19" fill="none" xmlns="http://www.w3.org/2000/svg">
<path opacity="0.3" d="M11.3152 13.2265C11.0061 12.9173 11.0061 12.416 11.3152 12.1069C11.6244 11.7977 12.1256 11.7977 12.4348 12.1069L15.6015 15.2735C15.9106 15.5827 15.9106 16.084 15.6015 16.3931C15.2923 16.7023 14.791 16.7023 14.4819 16.3931L11.3152 13.2265Z" fill="white"/>
<path fill-rule="evenodd" clip-rule="evenodd" d="M3.16666 8.70832C3.16666 11.7689 5.64775 14.25 8.70832 14.25C11.7689 14.25 14.25 11.7689 14.25 8.70832C14.25 5.64775 11.7689 3.16666 8.70832 3.16666C5.64775 3.16666 3.16666 5.64775 3.16666 8.70832ZM12.6667 8.70833C12.6667 10.8945 10.8945 12.6667 8.70832 12.6667C6.5222 12.6667 4.74999 10.8945 4.74999 8.70833C4.74999 6.5222 6.5222 4.74999 8.70832 4.74999C10.8945 4.74999 12.6667 6.5222 12.6667 8.70833Z" fill="white"/>
</svg>
