<svg width="17" height="17" viewBox="0 0 17 17" fill="none" xmlns="http://www.w3.org/2000/svg">
<path fill-rule="evenodd" clip-rule="evenodd" d="M8.50001 12.7501L5.60691 14.2711C5.26064 14.4531 4.83237 14.32 4.65033 13.9737C4.57783 13.8358 4.55282 13.6779 4.57915 13.5244L5.13169 10.3028L2.79112 8.02134C2.51098 7.74828 2.50525 7.29982 2.77832 7.01969C2.88705 6.90814 3.02953 6.83554 3.18369 6.81314L6.41827 6.34313L7.86482 3.4121C8.03796 3.06129 8.46269 2.91726 8.8135 3.09039C8.95319 3.15934 9.06626 3.2724 9.1352 3.4121L10.5818 6.34313L13.8163 6.81314C14.2035 6.8694 14.4717 7.22884 14.4155 7.61597C14.3931 7.77013 14.3205 7.91261 14.2089 8.02134L11.8683 10.3028L12.4209 13.5244C12.487 13.9099 12.228 14.2761 11.8425 14.3422C11.6889 14.3686 11.531 14.3436 11.3931 14.2711L8.50001 12.7501Z" fill="#FFA800"/>
</svg>
