<svg width="28" height="28" viewBox="0 0 28 28" fill="none" xmlns="http://www.w3.org/2000/svg">
<path opacity="0.25" d="M3.5 4.66669C3.5 2.73369 5.067 1.16669 7 1.16669H18.3836C19.3118 1.16669 20.2021 1.53544 20.8585 2.19181L23.4749 4.80823C24.1313 5.46461 24.5 6.35484 24.5 7.2831V23.3334C24.5 25.2663 22.933 26.8334 21 26.8334H7C5.067 26.8334 3.5 25.2663 3.5 23.3334V4.66669Z" fill="#A1A5B7"/>
<path d="M17.5 2.20713C17.5 1.63251 17.9658 1.16669 18.5404 1.16669C19.3683 1.16669 20.1622 1.49554 20.7475 2.0809L23.5858 4.91914C24.1711 5.5045 24.5 6.29842 24.5 7.12625C24.5 7.70087 24.0342 8.16669 23.4596 8.16669H18.6667C18.0223 8.16669 17.5 7.64435 17.5 7.00002V2.20713Z" fill="#A1A5B7"/>
<path d="M13.5534 10.5885C13.4158 10.6455 13.2869 10.7299 13.175 10.8417L9.67502 14.3417C9.21941 14.7973 9.21941 15.536 9.67502 15.9916C10.1306 16.4472 10.8693 16.4472 11.3249 15.9916L12.8333 14.4832V19.8333C12.8333 20.4777 13.3556 21 14 21C14.6443 21 15.1666 20.4777 15.1666 19.8333V14.4832L16.675 15.9916C17.1306 16.4472 17.8693 16.4472 18.3249 15.9916C18.7805 15.536 18.7805 14.7973 18.3249 14.3417L14.8249 10.8417C14.4812 10.498 13.9763 10.4136 13.5534 10.5885Z" fill="#A1A5B7"/>
</svg>
